<svg width="30" height="43" viewBox="0 0 30 43" fill="none" xmlns="http://www.w3.org/2000/svg">
<g clip-path="url(#clip0)">
<path d="M25.57 19.731V14.241C25.5726 13.2101 25.3722 12.1888 24.9801 11.2354C24.588 10.282 24.012 9.41512 23.2849 8.68432C22.5579 7.95352 21.6939 7.37309 20.7425 6.97616C19.7911 6.57924 18.7709 6.37359 17.74 6.37097H12C10.1435 6.37097 8.363 7.10847 7.05025 8.42122C5.73749 9.73398 5 11.5145 5 13.371V19.711C4.58009 19.6871 4.15973 19.7491 3.76465 19.8933C3.36957 20.0376 3.00809 20.2609 2.70236 20.5497C2.39662 20.8386 2.15306 21.1868 1.9866 21.573C1.82014 21.9592 1.73428 22.3754 1.73428 22.796C1.73428 23.2166 1.82014 23.6327 1.9866 24.0189C2.15306 24.4052 2.39662 24.7534 2.70236 25.0422C3.00809 25.331 3.36957 25.5544 3.76465 25.6986C4.15973 25.8428 4.58009 25.9049 5 25.881V34.371C5 36.2275 5.73749 38.008 7.05025 39.3207C8.363 40.6335 10.1435 41.371 12 41.371H18.59C20.4465 41.371 22.227 40.6335 23.5397 39.3207C24.8525 38.008 25.59 36.2275 25.59 34.371V25.901C26.0099 25.9249 26.4303 25.8628 26.8253 25.7186C27.2204 25.5744 27.5819 25.351 27.8876 25.0622C28.1934 24.7734 28.4369 24.4252 28.6034 24.0389C28.7698 23.6527 28.8557 23.2366 28.8557 22.816C28.8557 22.3954 28.7698 21.9792 28.6034 21.593C28.4369 21.2068 28.1934 20.8586 27.8876 20.5697C27.5819 20.2809 27.2204 20.0576 26.8253 19.9133C26.4303 19.7691 26.0099 19.7071 25.59 19.731H25.57Z" fill="#EDBAA5"/>
<path d="M15.3 31.871C16.81 31.871 19.16 32.231 20.58 32.231C21.3831 32.1523 22.1238 31.7635 22.6448 31.1473C23.1657 30.5311 23.4259 29.736 23.37 28.931V20.371C23.3053 19.465 22.9042 18.616 22.2455 17.9906C21.5868 17.3652 20.7181 17.0087 19.81 16.991C17.7 16.991 12.54 18.091 9.54001 18.091V14.181H25.54V34.371H15.3V31.871Z" fill="#BC856C"/>
<g style="mix-blend-mode:screen" opacity="0.3">
<path d="M11.06 33.2609C10.5345 33.2614 10.0144 33.1555 9.53102 32.9494C9.04763 32.7434 8.61099 32.4416 8.24746 32.0621C7.88393 31.6827 7.60103 31.2336 7.41585 30.7418C7.23067 30.2501 7.14703 29.7259 7.17 29.2009V14.2009H5.03V36.1009H11.03L11.06 33.2609Z" fill="white"/>
</g>
<g style="mix-blend-mode:screen" opacity="0.3">
<path d="M19.3286 15.1331L18.493 14.4023L5.03087 29.7963L5.86643 30.527L19.3286 15.1331Z" fill="white"/>
</g>
<g style="mix-blend-mode:screen" opacity="0.3">
<path d="M22.8417 16.1344L21.1931 14.6927L6.0984 31.9535L7.74695 33.3952L22.8417 16.1344Z" fill="white"/>
</g>
<path d="M5.03001 29.2009V34.3709C5.03001 36.2274 5.76751 38.0079 7.08026 39.3207C8.39302 40.6334 10.1735 41.3709 12.03 41.3709H18.62C20.4765 41.3709 22.257 40.6334 23.5698 39.3207C24.8825 38.0079 25.62 36.2274 25.62 34.3709V29.2009C25.6797 29.8562 25.5978 30.5167 25.3798 31.1375C25.1619 31.7584 24.813 32.3251 24.3568 32.7993C23.9006 33.2735 23.3478 33.6441 22.7359 33.8859C22.1239 34.1277 21.4671 34.2352 20.81 34.2009C17.9 34.2009 18.3 32.9209 15.35 32.9209C12.4 32.9209 12.8 34.2009 9.89001 34.2009C9.22884 34.2427 8.56647 34.1408 7.9484 33.9023C7.33033 33.6638 6.77121 33.2943 6.30946 32.8193C5.84771 32.3442 5.49427 31.7748 5.27341 31.1502C5.05255 30.5256 4.96952 29.8606 5.03001 29.2009Z" fill="#DD7B2C"/>
<path d="M12 41.3109H18.59C20.4465 41.3109 22.227 40.5734 23.5398 39.2607C24.8525 37.9479 25.59 36.1674 25.59 34.3109V28.5809C25.59 34.4009 22.5 39.4909 18.33 39.1809H12.33C8.57001 39.4909 5.07001 34.6309 5.07001 28.5809V34.3709C5.08564 36.205 5.82047 37.9596 7.11644 39.2575C8.41241 40.5553 10.166 41.2927 12 41.3109Z" fill="#C55927"/>
<path d="M4.87 28.5809H5.17C5.17 32.2009 6.48 35.6509 8.56999 37.5809C9.0486 38.0684 9.6246 38.4495 10.2604 38.6993C10.8962 38.9492 11.5776 39.0622 12.26 39.0309H18.26C18.9777 39.0849 19.6986 38.9833 20.3734 38.733C21.0482 38.4828 21.661 38.0898 22.17 37.5809C24.17 35.7009 25.45 32.2509 25.45 28.5809H25.76L25.45 31.7409C25.0646 34.0283 23.9941 36.1449 22.38 37.8109C21.8494 38.3454 21.2113 38.7609 20.5078 39.0299C19.8044 39.2988 19.0518 39.4151 18.3 39.3709H12.3C11.5711 39.4025 10.8438 39.2789 10.1663 39.0083C9.48876 38.7376 8.87648 38.3261 8.37 37.8009C6.69768 36.1277 5.5805 33.9807 5.17 31.6509L4.87 28.5809Z" fill="#AE481D"/>
<path d="M25.57 21.261C25.57 17.621 23.57 15.191 20.17 15.191C15.06 15.191 13.87 17.031 9.50999 17.031C4.64999 17.031 1.07999 13.781 1.07999 9.03096C1.07999 4.62096 4.43999 1.11096 8.31999 1.11096C8.31999 4.03096 10.23 6.43096 15.32 6.43096H17.76C19.835 6.43624 21.8235 7.26288 23.2908 8.73015C24.7581 10.1974 25.5847 12.1859 25.59 14.261V21.261H25.57Z" fill="#F14D25"/>
<path d="M17.47 12.491C13.9 12.491 14.62 13.381 10.28 13.381C6.83999 13.381 4.27999 10.651 4.27999 7.941C4.27999 5.231 5.49999 3.231 8.31999 1.661C7.35643 1.64849 6.40027 1.83089 5.50898 2.19724C4.61768 2.56359 3.80964 3.10633 3.13339 3.79285C2.45715 4.47937 1.92665 5.2955 1.57379 6.19222C1.22092 7.08894 1.05296 8.04773 1.07999 9.011C1.07999 13.781 4.64999 17.011 9.50999 17.011C13.87 17.011 15.06 15.171 20.17 15.171C23.52 15.171 25.57 16.701 25.57 20.331C25.57 14.761 22.48 12.491 17.47 12.491Z" fill="#C55927"/>
<path d="M8.32001 1.50098H8.92001L8.40001 1.79098C5.58001 3.36098 4.40001 5.20098 4.40001 7.94098C4.52215 9.40845 5.20169 10.7734 6.29899 11.7554C7.3963 12.7374 8.82803 13.2618 10.3 13.221C11.6499 13.2803 13.0006 13.1216 14.3 12.751C15.3295 12.4554 16.3998 12.3271 17.47 12.371C22.95 12.371 25.73 15.071 25.73 20.371H25.42L24.98 17.201C23.98 14.201 21.51 12.661 17.47 12.661C16.4048 12.6272 15.3411 12.7656 14.32 13.071C13.0209 13.4436 11.6704 13.6057 10.32 13.551C8.75597 13.6018 7.23272 13.0467 6.06817 12.0014C4.90363 10.9561 4.18777 9.50141 4.07001 7.94098C4.07001 5.29098 5.17001 3.37098 7.71001 1.83098L8.32001 1.50098Z" fill="#AE481D"/>
<path d="M29.74 22.821C29.7329 21.9096 29.4281 21.0256 28.8721 20.3035C28.316 19.5814 27.5393 19.0608 26.66 18.821V14.241C26.6442 11.8847 25.6977 9.63025 24.0269 7.96879C22.3561 6.30732 20.0963 5.37356 17.74 5.37098H15.3C12.61 5.37098 9.41 4.63098 9.41 1.13098V0.000976562H8.32C3.73 0.000976562 -2.46591e-06 4.05098 -2.46591e-06 9.01098C-0.0324878 10.4967 0.3118 11.9664 1.00075 13.2831C1.68971 14.5998 2.70089 15.7206 3.94 16.541V18.791C3.07638 19.0454 2.31831 19.5725 1.7791 20.2935C1.2399 21.0145 0.948514 21.8907 0.948514 22.791C0.948514 23.6913 1.2399 24.5674 1.7791 25.2884C2.31831 26.0094 3.07638 26.5365 3.94 26.791V34.371C3.95844 36.4974 4.81544 38.5306 6.3247 40.0286C7.83397 41.5266 9.87351 42.3684 12 42.371H18.59C20.7182 42.3711 22.7603 41.5304 24.2717 40.0321C25.7832 38.5338 26.6415 36.4991 26.66 34.371V26.841C27.5425 26.6003 28.3217 26.0767 28.8781 25.3505C29.4344 24.6244 29.7372 23.7358 29.74 22.821ZM2.17 9.01098C2.13266 7.46755 2.62397 5.95772 3.56248 4.73184C4.50099 3.50596 5.8303 2.63768 7.33 2.27098C7.88 5.57098 10.77 7.50098 15.33 7.50098H17.77C19.5577 7.50361 21.2715 8.21425 22.5365 9.47739C23.8015 10.7405 24.5147 12.4533 24.52 14.241V15.691C23.325 14.627 21.7694 14.0584 20.17 14.101C18.0915 14.0868 16.0256 14.4249 14.06 15.101C12.5995 15.6245 11.0614 15.8983 9.51 15.911C5.17 15.941 2.17 13.091 2.17 9.01098ZM3.03 22.821C3.02948 22.4873 3.11247 22.1587 3.27141 21.8653C3.43035 21.5718 3.6602 21.3229 3.94 21.141V24.501C3.6602 24.3191 3.43035 24.0701 3.27141 23.7767C3.11247 23.4832 3.02948 23.1547 3.03 22.821ZM18.59 40.221H12C10.4456 40.2184 8.95498 39.6025 7.85209 38.5071C6.74921 37.4117 6.12317 35.9253 6.11 34.371V34.071C7.19026 34.865 8.49942 35.2862 9.84 35.271C10.9566 35.3207 12.0649 35.0574 13.04 34.511C13.7274 34.1224 14.5115 33.9385 15.3 33.981C16.0885 33.9385 16.8726 34.1224 17.56 34.511C18.5351 35.0574 19.6434 35.3207 20.76 35.271C22.1006 35.2862 23.4097 34.865 24.49 34.071V34.371C24.4768 35.9271 23.8494 37.4149 22.7444 38.5106C21.6393 39.6063 20.1462 40.221 18.59 40.221ZM20.76 33.101C19.9856 33.1427 19.2153 32.9623 18.54 32.581C17.5521 32.0293 16.4305 31.7627 15.3 31.811C14.1695 31.7627 13.0479 32.0293 12.06 32.581C11.3847 32.9623 10.6144 33.1427 9.84 33.101C9.32663 33.1348 8.81209 33.0557 8.33261 32.8692C7.85312 32.6827 7.42035 32.3933 7.06475 32.0215C6.70915 31.6497 6.43938 31.2045 6.27443 30.7172C6.10947 30.2299 6.05334 29.7123 6.11 29.201V17.581C7.2074 17.9396 8.35552 18.1185 9.51 18.111C11.282 18.1008 13.0398 17.7932 14.71 17.201C16.4621 16.5759 18.3098 16.2612 20.17 16.271C22.87 16.271 24.49 18.141 24.49 21.271V29.211C24.5433 29.7212 24.4848 30.2369 24.3185 30.7222C24.1522 31.2074 23.8821 31.6506 23.527 32.0209C23.172 32.3912 22.7405 32.6796 22.2627 32.8662C21.7848 33.0527 21.272 33.1328 20.76 33.101ZM26.66 24.501V21.141C26.9398 21.3229 27.1696 21.5718 27.3286 21.8653C27.4875 22.1587 27.5705 22.4873 27.57 22.821C27.5705 23.1547 27.4875 23.4832 27.3286 23.7767C27.1696 24.0701 26.9398 24.3191 26.66 24.501Z" fill="#532B2B"/>
<path d="M16.92 36.881C16.918 36.561 16.8213 36.2488 16.6421 35.9837C16.4629 35.7186 16.2092 35.5125 15.913 35.3915C15.6169 35.2704 15.2914 35.2397 14.9779 35.3034C14.6643 35.367 14.3766 35.5221 14.151 35.749C13.9254 35.976 13.7721 36.2646 13.7104 36.5786C13.6487 36.8926 13.6814 37.2178 13.8043 37.5132C13.9272 37.8087 14.1348 38.0611 14.401 38.2387C14.6672 38.4162 14.98 38.511 15.3 38.511C15.5136 38.511 15.7251 38.4688 15.9223 38.3867C16.1195 38.3047 16.2985 38.1845 16.4491 38.033C16.5996 37.8815 16.7187 37.7017 16.7996 37.504C16.8804 37.3063 16.9213 37.0946 16.92 36.881Z" fill="#532B2B"/>
</g>
<defs>
<clipPath id="clip0">
<rect width="29.75" height="42.39" fill="white" transform="translate(0 0.000976562)"/>
</clipPath>
</defs>
</svg>
