<svg width="30" height="29" viewBox="0 0 30 29" fill="none" xmlns="http://www.w3.org/2000/svg">
<path d="M5.762 24.9678C2.70567 22.4749 0.75 18.7689 0.75 14.6534C0.75 7.15038 7.14581 1.08337 15 1.08337C22.8542 1.08337 29.25 7.15038 29.25 14.6534C29.25 18.7665 27.2967 22.4677 24.3011 24.9877C24.2996 24.9898 24.2981 24.9919 24.2966 24.9939C24.2653 25.0366 24.2286 25.0601 24.2165 25.0678C24.2121 25.0706 24.2085 25.0728 24.2057 25.0746L24.2052 25.0751L24.1928 25.0843C24.0637 25.1799 23.9281 25.275 23.7954 25.368L23.7786 25.3797C23.6508 25.4692 23.526 25.5565 23.4079 25.6432L23.3973 25.651L23.386 25.6577C23.3296 25.6906 23.2773 25.729 23.2124 25.7769L23.2111 25.7778C23.1511 25.822 23.0795 25.8748 22.9982 25.9219C20.6447 27.4401 17.8685 28.2506 15.0281 28.25L5.762 24.9678ZM5.762 24.9678V24.9826L5.86319 25.0576L5.86525 25.0591C6.11603 25.2449 6.37219 25.4346 6.65732 25.6247L6.66449 25.6295L6.67197 25.6338C6.7516 25.6793 6.81203 25.7282 6.89112 25.7923C6.93261 25.8259 6.97925 25.8636 7.03649 25.9072L7.04422 25.9131L7.05239 25.9184C9.40704 27.4388 12.1854 28.2506 15.0279 28.25L5.762 24.9678ZM23.8276 22.3618C25.8703 20.2683 27.0106 17.5158 27.014 14.6531C27.0138 8.38286 21.6217 3.23504 15 3.23504C8.3782 3.23504 2.986 8.38303 2.986 14.6534C2.986 17.632 4.20505 20.3296 6.19965 22.3855C6.47496 21.6201 6.86247 20.8955 7.35079 20.2333L7.35362 20.2295L7.35366 20.2295C7.89954 19.5181 8.56032 18.863 9.30791 18.3153C9.76355 17.9791 10.2509 17.6848 10.7634 17.4358C10.587 17.3072 10.4203 17.1687 10.2636 17.0194C9.83874 16.6148 9.42819 16.1706 9.13085 15.6625C8.81049 15.1639 8.57834 14.6374 8.40506 14.0603C8.22945 13.5039 8.14212 12.9194 8.142 12.3097C8.13316 11.4335 8.31198 10.5651 8.66716 9.75771L8.66746 9.75703C9.01068 8.98302 9.50431 8.27863 10.1217 7.68078C10.7426 7.07483 11.4848 6.59502 12.3035 6.26946C13.1487 5.93274 14.0565 5.76348 14.9719 5.7717C15.8872 5.76293 16.7951 5.9316 17.6404 6.26773L17.6412 6.26807C18.4515 6.59373 19.1904 7.06274 19.8188 7.65084L19.8197 7.65161C20.4493 8.24622 20.9534 8.95142 21.3039 9.72897L21.3048 9.73104C21.6598 10.5379 21.8386 11.4056 21.83 12.2812C21.8465 13.4656 21.5122 14.6296 20.8667 15.6397L20.8658 15.6409C20.5472 16.1329 20.1682 16.5866 19.7369 16.9923C19.5867 17.1385 19.4274 17.2755 19.2598 17.4026C19.7718 17.6452 20.2598 17.9322 20.7176 18.2601C20.7176 18.2601 20.7176 18.2601 20.7176 18.2602L20.572 18.4634L23.8276 22.3618ZM23.8276 22.3618C23.5484 21.5978 23.1618 20.8733 22.6783 20.2081L23.8276 22.3618ZM9.05338 22.0303L9.05363 22.0299C9.35028 21.5419 9.69893 21.1083 10.1265 20.7265L10.1266 20.7266L10.1324 20.7211C10.5365 20.3363 11.0235 19.9767 11.5112 19.6926C12.0215 19.4115 12.5606 19.2058 13.1582 19.0505C13.7584 18.8964 14.3777 18.8189 14.9995 18.82L15.0017 18.82C16.8481 18.8076 18.6245 19.4819 19.9535 20.6962C20.5715 21.2852 21.0554 21.9762 21.4058 22.7694C21.5742 23.1823 21.6998 23.6165 21.7823 24.0712C19.7856 25.3698 17.4224 26.0681 14.9996 26.0717C12.4781 26.0716 10.167 25.3228 8.24463 24.0705C8.27233 23.9257 8.3112 23.7775 8.35303 23.6182C8.51361 23.0626 8.74895 22.5289 9.05338 22.0303ZM18.1037 9.34618C18.4994 9.72306 18.818 10.1772 19.0581 10.6838C19.292 11.1789 19.398 11.7281 19.398 12.2817C19.398 12.863 19.2922 13.3857 19.0581 13.8796L19.0571 13.8817C18.8274 14.3781 18.5045 14.8313 18.1037 15.2189C17.6972 15.5995 17.221 15.9072 16.6981 16.1266C15.6013 16.5551 14.3707 16.5551 13.2739 16.1266C12.7507 15.907 12.2743 15.5991 11.8677 15.2183C11.4687 14.8387 11.1555 14.3866 10.9464 13.8898L10.9189 13.8953L10.9432 13.8842C10.7118 13.3795 10.5956 12.8343 10.602 12.2846H10.602V12.2817C10.602 11.728 10.7081 11.1787 10.942 10.6835C11.182 10.1757 11.5005 9.72314 11.8964 9.34608C12.292 8.96932 12.7699 8.66644 13.3065 8.43649C13.8304 8.21194 14.4121 8.11004 15 8.11004C15.6152 8.11004 16.1689 8.21167 16.6935 8.43649C17.2296 8.66622 17.7077 8.97068 18.1037 9.34618Z" fill="#4C2529" stroke="#4C2529" stroke-width="0.5"/>
</svg>
