<svg width="29" height="30" viewBox="0 0 29 30" fill="none" xmlns="http://www.w3.org/2000/svg">
<circle cx="14.5" cy="14.881" r="13" stroke="#4C2529" stroke-width="3"/>
<path d="M14.6639 5.04288L14.664 5.04288C15.1026 5.04376 15.5352 5.1426 15.9295 5.33204C16.3238 5.52149 16.6694 5.79663 16.9405 6.13688C17.2115 6.47713 17.4008 6.87362 17.494 7.29655C17.5738 7.65905 17.5813 8.03281 17.5167 8.39705L19.5936 7.6205C19.5937 7.62049 19.5937 7.62048 19.5937 7.62047C20.11 7.42665 20.6829 7.44087 21.1887 7.66008C21.6946 7.87932 22.093 8.28617 22.2973 8.79308C22.5016 9.30005 22.4953 9.86597 22.2796 10.3683C22.0639 10.8706 21.6565 11.2686 21.1459 11.4767L14.6639 5.04288ZM14.6639 5.04288C14.224 5.04274 13.7898 5.14137 13.3942 5.33134C12.9987 5.52131 12.6521 5.79767 12.3809 6.13953C12.1098 6.4814 11.9211 6.87977 11.8294 7.30441C11.7509 7.66825 11.7453 8.04311 11.8123 8.40798L9.69772 7.62162L9.69773 7.6216L9.6959 7.62096C9.1855 7.44234 8.62476 7.46555 8.13131 7.68577C7.63782 7.90601 7.24971 8.30632 7.04892 8.80305C6.84811 9.29983 6.85047 9.85404 7.05548 10.3491C7.26048 10.8442 7.65198 11.2413 8.14731 11.4574L8.14731 11.4575L8.14918 11.4582L10.8346 12.5658V15.4114L9.39917 19.6584C9.39916 19.6585 9.39914 19.6585 9.39913 19.6586C9.22309 20.174 9.26013 20.737 9.50213 21.2257C9.74413 21.7143 10.1714 22.0889 10.6912 22.2689C11.2108 22.4489 11.7815 22.42 12.2798 22.1884C12.778 21.9568 13.1641 21.541 13.354 21.0305C13.3541 21.0304 13.3541 21.0303 13.3541 21.0302L14.6541 17.571L15.9586 21.0263C15.9586 21.0265 15.9587 21.0266 15.9587 21.0268C16.1476 21.5378 16.533 21.9545 17.031 22.187C17.5291 22.4195 18.1001 22.449 18.6201 22.2694C19.1402 22.0897 19.5679 21.715 19.81 21.2262C20.052 20.7374 20.0889 20.1741 19.9124 19.6586C19.9124 19.6585 19.9124 19.6584 19.9123 19.6584L18.4931 15.4128V12.5611L21.1458 11.4768L14.6639 5.04288ZM17.495 11.4264L17.4951 11.4263L20.5925 10.1611C20.5926 10.1611 20.5926 10.161 20.5927 10.161C20.7523 10.095 20.8788 9.97021 20.9457 9.81381C21.0125 9.65741 21.0145 9.48151 20.9511 9.32372C20.8878 9.16587 20.764 9.03834 20.6059 8.96891C20.4585 8.90421 20.2925 8.89493 20.1392 8.94211L20.1063 8.95438L15.6784 10.6081L15.6783 10.6081C15.0182 10.8541 14.2885 10.8555 13.6281 10.6081L9.18864 8.95346C9.18851 8.95341 9.18839 8.95337 9.18827 8.95332C9.02846 8.89532 8.85193 8.90111 8.69642 8.96943C8.54084 9.03778 8.41897 9.16314 8.35634 9.31832C8.29373 9.47345 8.29513 9.64648 8.36023 9.80062C8.42531 9.95471 8.54907 10.0781 8.70559 10.144C8.7057 10.1441 8.70581 10.1441 8.70592 10.1442L11.8341 11.4326L11.8341 11.4326C11.9654 11.4867 12.0777 11.578 12.1567 11.6952C12.2357 11.8124 12.2779 11.9501 12.2776 12.0911M17.495 11.4264L17.15 15.5271L17.05 15.5269M17.495 11.4264C17.3635 11.4803 17.2509 11.5715 17.1716 11.6887C17.0923 11.8059 17.0499 11.9438 17.05 12.0849M17.495 11.4264L17.05 12.0849M12.2776 12.0911L12.1776 12.091H12.2776V12.0911ZM12.2776 12.0911V15.5271V15.5273C12.2775 15.604 12.2648 15.6801 12.24 15.7527L12.2401 15.7526L12.1453 15.7206L12.24 15.7528L10.7685 20.1079C10.7685 20.108 10.7684 20.1081 10.7684 20.1082C10.7162 20.2672 10.729 20.4401 10.8043 20.59C10.8796 20.74 11.0118 20.8556 11.1729 20.9114C11.334 20.9673 11.511 20.9588 11.6658 20.8879C11.8205 20.8171 11.9406 20.6898 12.0009 20.5335C12.001 20.5334 12.001 20.5332 12.001 20.5331L13.4775 16.6079C13.8817 15.5316 15.4247 15.5305 15.8314 16.6064L15.8314 16.6065L17.3107 20.5289L17.3114 20.5307L17.3114 20.5307C17.3683 20.6909 17.4877 20.8227 17.6437 20.8967C17.7998 20.9707 17.9794 20.9806 18.143 20.9241C18.3065 20.8677 18.4401 20.7497 18.5148 20.5967C18.5895 20.4437 18.5995 20.2678 18.5426 20.1077L18.5419 20.1059L18.5419 20.1059L17.0863 15.7511L17.0863 15.751C17.0622 15.6788 17.0499 15.6032 17.05 15.5271C17.05 15.527 17.05 15.5269 17.05 15.5269M17.05 15.5269L17.05 12.0849M17.05 15.5269L17.05 12.0849M13.21 7.89909C13.21 7.51998 13.3628 7.1561 13.6353 6.88758C13.9078 6.61901 14.2778 6.46786 14.6638 6.46786C15.0499 6.46786 15.4199 6.61901 15.6924 6.88758C15.9649 7.1561 16.1177 7.51998 16.1177 7.89909C16.1177 8.2782 15.9649 8.64208 15.6924 8.9106C15.4199 9.17918 15.0499 9.33032 14.6638 9.33032C14.2778 9.33032 13.9078 9.17918 13.6353 8.9106C13.3628 8.64208 13.21 8.2782 13.21 7.89909Z" fill="#4C2529" stroke="#4C2529" stroke-width="0.2"/>
</svg>
