<svg width="50" height="50" viewBox="0 0 50 50" fill="none" xmlns="http://www.w3.org/2000/svg">
<path d="M25 0C20.0555 0 15.222 1.46622 11.1108 4.21326C6.99952 6.96029 3.79521 10.8648 1.90302 15.4329C0.010832 20.0011 -0.484251 25.0277 0.480379 29.8773C1.44501 34.7268 3.82603 39.1814 7.32234 42.6777C10.8187 46.174 15.2732 48.555 20.1227 49.5196C24.9723 50.4843 29.9989 49.9892 34.5671 48.097C39.1352 46.2048 43.0397 43.0005 45.7867 38.8892C48.5338 34.778 50 29.9445 50 25C50 18.3696 47.3661 12.0107 42.6777 7.32233C37.9893 2.63392 31.6304 0 25 0ZM37.5 24.3281C37.0825 24.7366 36.5216 24.9653 35.9375 24.9653C35.3534 24.9653 34.7925 24.7366 34.375 24.3281L27.1875 17.1875V39.2812C27.1875 39.8614 26.957 40.4178 26.5468 40.828C26.1366 41.2383 25.5802 41.4687 25 41.4687C24.4198 41.4687 23.8634 41.2383 23.4532 40.828C23.043 40.4178 22.8125 39.8614 22.8125 39.2812V17.4062L15.8906 24.3281C15.4762 24.7425 14.9142 24.9753 14.3281 24.9753C13.7421 24.9753 13.18 24.7425 12.7656 24.3281C12.3512 23.9137 12.1184 23.3517 12.1184 22.7656C12.1184 22.1796 12.3512 21.6175 12.7656 21.2031L25.125 8.90625L37.5 21.2344C37.7032 21.4375 37.8643 21.6787 37.9743 21.9441C38.0842 22.2095 38.1408 22.494 38.1408 22.7812C38.1408 23.0685 38.0842 23.353 37.9743 23.6184C37.8643 23.8838 37.7032 24.125 37.5 24.3281Z" fill="#1C948D"/>
</svg>
