<svg width="20" height="20" viewBox="0 0 20 20" fill="none" xmlns="http://www.w3.org/2000/svg">
<path d="M18.9 -0.000976562H1.1C0.808262 -0.000976562 0.528473 0.114916 0.322183 0.321206C0.115893 0.527496 0 0.807285 0 1.09902V18.899C0 19.1908 0.115893 19.4706 0.322183 19.6768C0.528473 19.8831 0.808262 19.999 1.1 19.999H10.68V12.249H8.08V9.24902H10.68V6.99902C10.6261 6.47078 10.6885 5.93715 10.8627 5.43556C11.0369 4.93397 11.3188 4.47657 11.6885 4.09543C12.0582 3.7143 12.5068 3.41866 13.0028 3.22926C13.4989 3.03986 14.0304 2.96128 14.56 2.99902C15.3383 2.99423 16.1163 3.0343 16.89 3.11902V5.81902H15.3C14.04 5.81902 13.8 6.41902 13.8 7.28902V9.21902H16.8L16.41 12.219H13.8V19.999H18.9C19.0445 19.999 19.1875 19.9706 19.321 19.9153C19.4544 19.86 19.5757 19.779 19.6778 19.6768C19.78 19.5747 19.861 19.4534 19.9163 19.32C19.9715 19.1865 20 19.0435 20 18.899V1.09902C20 0.954569 19.9715 0.81153 19.9163 0.678072C19.861 0.544614 19.78 0.423351 19.6778 0.321206C19.5757 0.219062 19.4544 0.138036 19.321 0.082756C19.1875 0.0274759 19.0445 -0.000976563 18.9 -0.000976562Z" fill="#4C2529"/>
</svg>
