<svg width="20" height="20" viewBox="0 0 20 20" fill="none" xmlns="http://www.w3.org/2000/svg">
<path d="M10 7.61777C9.52907 7.61795 9.06877 7.75776 8.67729 8.01952C8.28582 8.28128 7.98074 8.65324 7.80065 9.08838C7.62055 9.52351 7.57352 10.0023 7.66551 10.4641C7.75749 10.926 7.98435 11.3502 8.31741 11.6831C8.65047 12.0161 9.07477 12.2428 9.53666 12.3346C9.99856 12.4264 10.4773 12.3792 10.9124 12.1989C11.3474 12.0187 11.7193 11.7135 11.9809 11.3219C12.2425 10.9303 12.3821 10.47 12.3821 9.99902C12.3817 9.36747 12.1305 8.76193 11.6839 8.31543C11.2372 7.86894 10.6316 7.61801 10 7.61777ZM15.5674 5.78742C15.4462 5.4802 15.2631 5.20118 15.0296 4.96764C14.7961 4.73411 14.517 4.55105 14.2098 4.42983C13.2723 4.05974 11.0402 4.14277 10 4.14277C8.95982 4.14277 6.72991 4.05661 5.78973 4.42983C5.48252 4.55105 5.20349 4.73411 4.96996 4.96764C4.73642 5.20118 4.55337 5.4802 4.43214 5.78742C4.0625 6.72492 4.14509 8.95929 4.14509 9.99858C4.14509 11.0379 4.0625 13.2696 4.43393 14.2102C4.55515 14.5174 4.73821 14.7964 4.97174 15.03C5.20528 15.2635 5.4843 15.4465 5.79152 15.5678C6.72902 15.9379 8.96116 15.8548 10.0018 15.8548C11.0424 15.8548 13.2714 15.941 14.2116 15.5678C14.5188 15.4465 14.7978 15.2635 15.0314 15.03C15.2649 14.7964 15.448 14.5174 15.5692 14.2102C15.942 13.2727 15.8562 11.0383 15.8562 9.99902C15.8562 8.95974 15.942 6.72849 15.5692 5.78786L15.5674 5.78742ZM10 13.6597C9.27598 13.6597 8.56822 13.445 7.96622 13.0428C7.36421 12.6406 6.89501 12.0688 6.61794 11.3999C6.34087 10.731 6.26838 9.99496 6.40963 9.28485C6.55088 8.57474 6.89952 7.92247 7.41148 7.41051C7.92344 6.89855 8.57572 6.5499 9.28583 6.40865C9.99594 6.2674 10.732 6.33989 11.4009 6.61696C12.0698 6.89404 12.6415 7.36324 13.0438 7.96524C13.446 8.56724 13.6607 9.275 13.6607 9.99902C13.6613 10.4799 13.567 10.9562 13.3833 11.4006C13.1995 11.845 12.9299 12.2488 12.5898 12.5889C12.2498 12.9289 11.846 13.1985 11.4016 13.3823C10.9572 13.566 10.4809 13.6603 10 13.6597ZM13.8116 7.0392C13.6426 7.03929 13.4773 6.98925 13.3368 6.89542C13.1962 6.80158 13.0866 6.66816 13.0219 6.51204C12.9571 6.35591 12.9401 6.18409 12.9731 6.01831C13.006 5.85253 13.0873 5.70024 13.2068 5.5807C13.3263 5.46115 13.4785 5.37973 13.6443 5.34672C13.8101 5.31372 13.9819 5.33061 14.138 5.39527C14.2942 5.45993 14.4277 5.56945 14.5216 5.70998C14.6155 5.8505 14.6656 6.01572 14.6656 6.18474C14.6661 6.29698 14.6444 6.4082 14.6018 6.51204C14.5592 6.61587 14.4965 6.71027 14.4173 6.78982C14.3381 6.86938 14.244 6.93251 14.1404 6.97561C14.0368 7.01871 13.9256 7.04093 13.8134 7.04099L13.8116 7.0392ZM17.8571 -0.000976562H2.14286C1.57454 -0.000976562 1.02949 0.224788 0.627628 0.626652C0.225765 1.02852 0 1.57356 0 2.14188L0 17.8562C0 18.4245 0.225765 18.9695 0.627628 19.3714C1.02949 19.7733 1.57454 19.999 2.14286 19.999H17.8571C18.4255 19.999 18.9705 19.7733 19.3724 19.3714C19.7742 18.9695 20 18.4245 20 17.8562V2.14188C20 1.57356 19.7742 1.02852 19.3724 0.626652C18.9705 0.224788 18.4255 -0.000976562 17.8571 -0.000976562ZM17.0929 12.9455C17.0353 14.0896 16.7741 15.1035 15.9388 15.9365C15.1036 16.7696 14.0906 17.0361 12.9478 17.0905C11.7688 17.1571 8.23393 17.1571 7.05491 17.0905C5.91071 17.033 4.90045 16.7713 4.06384 15.9365C3.22723 15.1017 2.96429 14.0874 2.90982 12.9455C2.8433 11.766 2.8433 8.23072 2.90982 7.0526C2.96741 5.9084 3.22545 4.89456 4.06384 4.06152C4.90223 3.22849 5.91518 2.9651 7.05491 2.91063C8.23393 2.84411 11.7688 2.84411 12.9478 2.91063C14.092 2.96822 15.1054 3.22983 15.9388 4.06465C16.7723 4.89947 17.0384 5.91376 17.0929 7.05795C17.1594 8.23295 17.1594 11.7651 17.0929 12.9455Z" fill="#4C2529"/>
</svg>
