<svg width="32" height="31" viewBox="0 0 32 31" fill="none" xmlns="http://www.w3.org/2000/svg">
<path d="M0.765286 11.7767L0.765201 11.776C0.735963 11.5558 0.748899 11.3308 0.80338 11.1163C0.857861 10.9017 0.952997 10.7011 1.0839 10.529C1.21487 10.3568 1.37907 10.2166 1.56668 10.1203L1.68081 10.3427L1.56668 10.1203C1.75397 10.0242 1.95909 9.97482 2.16747 9.97723H8.83343V4.95454C8.83343 3.84944 9.21709 2.78396 9.90829 1.99368C10.6004 1.20233 11.5469 0.750013 12.5422 0.750013H19.4597C20.4549 0.750013 21.4014 1.20233 22.0935 1.99368C22.7847 2.78396 23.1684 3.84944 23.1684 4.95454V9.97723H29.8359C30.0441 9.97722 30.2485 10.0289 30.4347 10.1269C30.6202 10.2246 30.7822 10.3654 30.9112 10.5374C31.0419 10.7074 31.1375 10.9055 31.1932 11.1178C31.249 11.3307 31.2638 11.5542 31.2369 11.7736L31.2366 11.7763L31.2366 11.7763L29.0922 27.7918L0.765286 11.7767ZM0.765286 11.7767L2.93268 27.7918M0.765286 11.7767L2.93268 27.7918M2.93268 27.7918C2.93269 27.7919 2.93271 27.7921 2.93272 27.7922M2.93268 27.7918L2.93272 27.7922M2.93272 27.7922C3.02297 28.472 3.32569 29.0979 3.79267 29.5517C4.26016 30.006 4.86178 30.2575 5.4879 30.2498H26.537C27.1631 30.2575 27.7647 30.006 28.2322 29.5517C28.6992 29.0978 29.0019 28.472 29.0922 27.7921L2.93272 27.7922ZM11.6393 4.95454C11.6393 4.66123 11.7415 4.38557 11.9151 4.18703C12.0878 3.98956 12.3143 3.88636 12.5422 3.88636H19.4597C19.6875 3.88636 19.914 3.98956 20.0867 4.18703C20.2604 4.38557 20.3626 4.66123 20.3626 4.95454V9.97723H11.6393V4.95454ZM28.2011 13.1136L26.3199 27.1135H5.68193L3.80069 13.1136H28.2011Z" fill="#4C2529" stroke="#4C2529" stroke-width="0.5"/>
</svg>
