<svg width="32" height="30" viewBox="0 0 32 30" fill="none" xmlns="http://www.w3.org/2000/svg">
<path d="M0.765514 11.6477L0.765421 11.647C0.735756 11.4342 0.748896 11.2169 0.804128 11.0097C0.859364 10.8025 0.955665 10.6095 1.08754 10.4444C1.21946 10.2792 1.38411 10.1455 1.57104 10.0542C1.75758 9.96303 1.96113 9.91654 2.16739 9.91882H8.83343V5.14721C8.83343 4.08859 9.21943 3.06949 9.91233 2.31499C10.6059 1.55978 11.5513 1.13099 12.5422 1.13099H19.4597C20.4505 1.13099 21.3959 1.55978 22.0895 2.31499C22.7824 3.06949 23.1684 4.08859 23.1684 5.14721V9.91882H29.8359C30.042 9.91881 30.2448 9.96745 30.4303 10.0605C30.6151 10.1531 30.7776 10.2873 30.9076 10.4524C31.0392 10.6154 31.1359 10.8061 31.1924 11.011C31.249 11.2165 31.264 11.4325 31.2367 11.6445L31.2364 11.6473L31.2364 11.6473L29.092 26.9002L0.765514 11.6477ZM0.765514 11.6477L2.9329 26.9002M0.765514 11.6477L2.9329 26.9002M2.9329 26.9002C2.93291 26.9003 2.93293 26.9004 2.93294 26.9005M2.9329 26.9002L2.93294 26.9005M2.93294 26.9005C3.02393 27.5533 3.32898 28.1525 3.79709 28.5858C4.26542 29.0193 4.86562 29.2571 5.48782 29.2499H26.5371C27.1593 29.2571 27.7595 29.0193 28.2278 28.5858C28.6959 28.1525 29.0009 27.5533 29.0919 26.9005L2.93294 26.9005ZM11.6393 5.14721C11.6393 4.87401 11.7391 4.61584 11.9111 4.4286C12.0824 4.24208 12.3099 4.1418 12.5422 4.1418H19.4597C19.6919 4.1418 19.9195 4.24208 20.0908 4.4286C20.2627 4.61584 20.3626 4.87401 20.3626 5.14721V9.91882H11.6393V5.14721ZM28.1992 12.9296L26.3213 26.2391H5.68048L3.8026 12.9296H28.1992Z" fill="#4C2529" stroke="#4C2529" stroke-width="0.5"/>
</svg>
